<svg id="Capa_1" enable-background="new 0 0 512 512" height="512" viewBox="0 0 512 512" width="512" xmlns="http://www.w3.org/2000/svg"><g><g><g><g><path d="m456.582 396.904h-401.164c-17.707 0-32.061-14.354-32.061-32.061v-250.582c0-17.707 14.354-32.061 32.061-32.061h401.165c17.707 0 32.061 14.354 32.061 32.061v250.581c0 17.707-14.355 32.062-32.062 32.062z" fill="#29e088"/><g><path d="m69.892 273.856v-96.715c0-12.85-10.417-23.268-23.268-23.268-12.85 0-23.268 10.417-23.268 23.268v96.715c0 12.85 10.417 23.268 23.268 23.268 12.851 0 23.268-10.418 23.268-23.268z" fill="#79ff79"/><path d="m69.892 231.794v-22.66c0-12.85-10.417-23.268-23.268-23.268-12.85 0-23.268 10.417-23.268 23.268v22.66c0 12.85 10.417 23.268 23.268 23.268 12.851 0 23.268-10.417 23.268-23.268z" fill="#c2ffc2"/></g><path d="m456.585 82.203h-16.223c0 293.996-349.921 314.702-349.921 314.702h366.144c17.708 0 32.061-14.353 32.061-32.061v-250.58c.001-17.708-14.352-32.061-32.061-32.061z" fill="#0cc166"/><path d="m488.647 178.932v185.912c0 17.708-14.353 32.061-32.061 32.061h-211.668c117.792-18.2 212.993-104.818 243.729-217.973z" fill="#04a550"/></g><g><path d="m122.647 130.386h162.27c13.306 0 24.093-10.787 24.093-24.093 0-13.306-10.787-24.093-24.093-24.093h-162.27c-13.306 0-24.093 10.787-24.093 24.093 0 13.306 10.787 24.093 24.093 24.093z" fill="#79ff79"/><path d="m167.985 130.386h55.076c13.306 0 24.093-10.787 24.093-24.093 0-13.306-10.787-24.093-24.093-24.093h-55.076c-13.306 0-24.093 10.787-24.093 24.093 0 13.306 10.787 24.093 24.093 24.093z" fill="#c2ffc2"/></g></g><g><g><path d="m23.356 343.466v21.377c0 17.707 14.354 32.061 32.061 32.061h401.165c17.707 0 32.061-14.354 32.061-32.061v-21.377" fill="#8f8b81"/></g></g><g><g><path d="m488.644 343.466v21.379c0 17.706-14.352 32.057-32.058 32.057h-366.144s96.13-5.686 187.619-53.436z" fill="#706c64"/></g></g><g><g><path d="m488.644 343.466v21.379c0 17.706-14.352 32.057-32.058 32.057h-211.67c47.964-7.41 92.191-26.17 129.828-53.436z" fill="#595751"/></g></g><g><path d="m489.369 429.8h-466.738c-12.499 0-22.631-10.132-22.631-22.631v-11.108c0-5.88 4.767-10.647 10.647-10.647h490.706c5.88 0 10.647 4.767 10.647 10.647v11.108c0 12.499-10.132 22.631-22.631 22.631z" fill="#d8d4c9"/><g><path d="m311.561 414.785h-111.122c-6.912 0-13.039-4.446-15.183-11.017l-5.988-18.354h153.464l-5.988 18.354c-2.144 6.571-8.271 11.017-15.183 11.017z" fill="#b5b1a4"/></g><path d="m145.715 385.414h-90.295c-12.257 0-22.193 9.936-22.193 22.193 0 12.257 9.936 22.193 22.193 22.193h90.296c12.257 0 22.193-9.936 22.193-22.193-.001-12.257-9.937-22.193-22.194-22.193z" fill="#e8e4d8"/><path d="m99.117 385.414h-17.352c-12.257 0-22.193 9.936-22.193 22.193 0 12.257 9.936 22.193 22.193 22.193h17.352c12.257 0 22.193-9.936 22.193-22.193 0-12.257-9.936-22.193-22.193-22.193z" fill="#f1eee0"/></g></g><g><g><path d="m258.742 188.769c0 5.88 3.288 11.295 8.498 13.667 10.819 4.925 18.576 15.815 18.576 28.852 0 8.461-3.197 16.422-9.004 22.418-2.777 2.868-5.991 5.116-9.484 6.683-5.148 2.308-8.586 7.416-8.586 13.211v.617c0 10.487 10.389 17.523 19.724 13.393 6.847-3.029 13.142-7.412 18.571-13.019 11.209-11.575 17.383-26.954 17.382-43.304-.001-25.096-14.697-46.708-35.667-56.156-9.445-4.256-20.01 2.996-20.01 13.638z" fill="#efe"/></g><g fill="#efe"><circle cx="221.46" cy="277.741" r="17.879"/><circle cx="221.46" cy="184.962" r="17.879"/></g></g></g></svg>