<svg id="Layer_1" enable-background="new 0 0 256 256" height="512" viewBox="0 0 256 256" width="512" xmlns="http://www.w3.org/2000/svg"><g><g><g><g><path d="m128 104c-33.137 0-60 26.863-60 60v36h36v-72c0-13.255 10.745-24 24-24z" fill="#89aadb"/></g><g><path d="m128 104c13.255 0 24 10.745 24 24v72h36v-36c0-33.137-26.863-60-60-60z" fill="#4b67b0"/></g><g><path d="m128 104c-13.255 0-24 10.745-24 24v72h48v-72c0-13.255-10.745-24-24-24z" fill="#6287c5"/></g></g><g><path d="m188 203h-120c-1.657 0-3-1.343-3-3v-36c0-34.738 28.262-63 63-63s63 28.262 63 63v36c0 1.657-1.343 3-3 3zm-117-6h114v-33c0-31.43-25.57-57-57-57s-57 25.57-57 57z" fill="#1c2d6b"/></g><g><path d="m128.105 125c9.941 0 18-8.059 18-18v-.214c-5.713-1.806-11.794-2.786-18.105-2.786-6.233 0-12.243.952-17.895 2.715v.285c0 9.941 8.059 18 18 18z" fill="#eee045"/><path d="m128.105 128c-11.58 0-21-9.42-21-21v-.285c0-1.313.854-2.473 2.106-2.864 12.192-3.805 25.583-3.788 37.798.075 1.248.395 2.096 1.552 2.096 2.86v.214c0 11.58-9.42 21-21 21zm-14.876-19.067c.951 7.361 7.26 13.067 14.876 13.067 7.596 0 13.891-5.675 14.868-13.007-9.672-2.63-20.087-2.644-29.744-.06z" fill="#1c2d6b"/></g><g><g><path d="m112 68c0-26.51 7.163-48 16-48-26.51 0-48 21.49-48 48s21.49 48 48 48c-8.837 0-16-21.49-16-48z" fill="#ede49d"/></g><g><path d="m128 20c8.837 0 16 21.49 16 48s-7.163 48-16 48c26.51 0 48-21.49 48-48s-21.49-48-48-48z" fill="#d3ba2a"/></g><g><ellipse cx="128" cy="68" fill="#eee045" rx="16" ry="48"/></g></g><g><circle cx="112" cy="77.943" fill="#1c2d6b" r="3.941"/></g><g><circle cx="144" cy="77.943" fill="#1c2d6b" r="3.941"/></g><g><path d="m128 95c-3.912 0-7.562-2.104-9.524-5.493-.83-1.434-.341-3.269 1.093-4.1 1.434-.83 3.269-.341 4.1 1.093.893 1.542 2.553 2.5 4.332 2.5s3.438-.958 4.332-2.5c.83-1.434 2.667-1.922 4.1-1.093 1.434.831 1.923 2.666 1.093 4.1-1.964 3.389-5.614 5.493-9.526 5.493z" fill="#1c2d6b"/></g><g><path d="m128 119c-28.122 0-51-22.878-51-51s22.878-51 51-51 51 22.878 51 51-22.878 51-51 51zm0-96c-24.813 0-45 20.187-45 45s20.187 45 45 45 45-20.187 45-45-20.187-45-45-45z" fill="#1c2d6b"/></g><g><g><path d="m126.031 26.597v-.039c2.139-3.369 4.563-5.555 7.149-6.275-1.691-.18-3.404-.283-5.143-.283-8.833 0-17.101 2.396-24.21 6.559v.039c0 16.199 13.132 29.331 29.331 29.331h3.775c-6.021 0-10.902-13.132-10.902-29.332z" fill="#a4d4a0"/></g><g><path d="m139.166 21.308c6.413 4.098 11.486 17.5 13.135 34.621h22.204c-4.435-17.121-18.085-30.524-35.339-34.621z" fill="#419b46"/></g><g><path d="m139.166 21.308c-1.952-.464-3.949-.807-5.986-1.024-2.586.721-5.01 2.906-7.149 6.275v.039c0 16.199 4.881 29.331 10.902 29.331h15.368c-1.649-17.121-6.722-30.524-13.135-34.621z" fill="#65bc49"/></g></g><g><path d="m174.505 58.929h-41.347c-17.828 0-32.331-14.503-32.331-32.331 0-1.065.565-2.09 1.484-2.628 7.788-4.56 16.684-6.97 25.726-6.97 23.246 0 43.549 15.699 49.372 38.176.232.899.036 1.854-.532 2.588-.568.735-1.444 1.165-2.372 1.165zm-67.622-30.643c.89 13.754 12.335 24.643 26.275 24.643h37.294c-6.305-17.805-23.222-29.929-42.414-29.929-7.388 0-14.664 1.823-21.155 5.286z" fill="#1c2d6b"/></g><g><path d="m81.57 55.929h2.231c11.046 0 20-8.954 20-20v-9.331h-.041c-10.838 6.369-18.96 16.861-22.19 29.331z" fill="#a4d4a0"/></g><g><path d="m83.801 58.929h-2.231c-.928 0-1.804-.43-2.373-1.164-.568-.734-.764-1.69-.532-2.588 3.362-12.978 11.955-24.337 23.574-31.165.461-.271.985-.414 1.52-.414 1.657 0 3.042 1.343 3.042 3v9.331c0 12.682-10.318 23-23 23zm17-26.733c-6.902 5.272-12.204 12.489-15.136 20.631 8.5-.931 15.136-8.154 15.136-16.898z" fill="#1c2d6b"/></g></g><g><g><g><g><path d="m108.21 236h-47.22l-15.69-54.82h58.28z" fill="#89aadb"/></g><g><path d="m210.7 181.18-15.69 54.82h-47.22l4.63-54.82z" fill="#4b67b0"/></g><g><path d="m152.42 181.18-4.63 54.82h-39.58l-4.63-54.82z" fill="#6287c5"/></g></g><g><g><g><g><path d="m173.21 202.56v29.68c0 1.37-.36 2.65-1 3.76h-5.32v-39.76c0-.72-.58-1.3-1.3-1.3 4.21 0 7.62 3.41 7.62 7.62z" fill="#419b46"/></g><g><path d="m165.59 194.94c-.72 0-1.3.58-1.3 1.3v39.76h-5.32c-.64-1.11-1-2.39-1-3.76v-29.68c0-4.21 3.41-7.62 7.62-7.62z" fill="#a4d4a0"/></g><g><path d="m166.89 196.24v39.76h-2.6v-39.76c0-.72.58-1.3 1.3-1.3s1.3.58 1.3 1.3z" fill="#65bc49"/></g></g><g><path d="m172.207 239h-13.233c-1.078 0-2.072-.578-2.606-1.514-.912-1.6-1.394-3.415-1.394-5.25v-29.676c0-5.854 4.763-10.617 10.617-10.617s10.617 4.763 10.617 10.617v29.676c0 1.835-.482 3.65-1.394 5.25-.535.936-1.529 1.514-2.607 1.514zm-11.17-6h9.107c.042-.25.063-.505.063-.764v-29.676c0-2.546-2.071-4.617-4.617-4.617s-4.617 2.071-4.617 4.617v29.676c.001.259.022.514.064.764z" fill="#1c2d6b"/></g></g><g><g><g><path d="m135.383 202.56v29.68c0 1.37-.36 2.65-1 3.76h-5.32v-39.76c0-.72-.58-1.3-1.3-1.3 4.21 0 7.62 3.41 7.62 7.62z" fill="#419b46"/></g><g><path d="m127.763 194.94c-.72 0-1.3.58-1.3 1.3v39.76h-5.32c-.64-1.11-1-2.39-1-3.76v-29.68c0-4.21 3.41-7.62 7.62-7.62z" fill="#a4d4a0"/></g><g><path d="m129.063 196.24v39.76h-2.6v-39.76c0-.72.58-1.3 1.3-1.3s1.3.58 1.3 1.3z" fill="#65bc49"/></g></g><g><path d="m134.38 239h-13.233c-1.077 0-2.072-.578-2.606-1.513-.912-1.6-1.395-3.415-1.395-5.251v-29.676c0-5.854 4.763-10.617 10.617-10.617s10.617 4.763 10.617 10.617v29.676c0 1.836-.482 3.651-1.395 5.251-.533.935-1.528 1.513-2.605 1.513zm-11.171-6h9.108c.042-.25.063-.505.063-.764v-29.676c0-2.546-2.071-4.617-4.617-4.617s-4.617 2.071-4.617 4.617v29.676c0 .259.021.514.063.764z" fill="#1c2d6b"/></g></g><g><g><g><path d="m97.556 202.56v29.68c0 1.37-.36 2.65-1 3.76h-5.32v-39.76c0-.72-.58-1.3-1.3-1.3 4.21 0 7.62 3.41 7.62 7.62z" fill="#419b46"/></g><g><path d="m89.936 194.94c-.72 0-1.3.58-1.3 1.3v39.76h-5.32c-.64-1.11-1-2.39-1-3.76v-29.68c0-4.21 3.41-7.62 7.62-7.62z" fill="#a4d4a0"/></g><g><path d="m91.236 196.24v39.76h-2.6v-39.76c0-.72.58-1.3 1.3-1.3s1.3.58 1.3 1.3z" fill="#65bc49"/></g></g><g><path d="m96.553 239h-13.233c-1.078 0-2.072-.578-2.606-1.514-.912-1.6-1.394-3.415-1.394-5.25v-29.676c0-5.854 4.763-10.617 10.617-10.617s10.617 4.763 10.617 10.617v29.676c0 1.834-.482 3.65-1.394 5.25-.535.936-1.529 1.514-2.607 1.514zm-11.17-6h9.108c.042-.25.063-.505.063-.764v-29.676c0-2.546-2.071-4.617-4.617-4.617s-4.617 2.071-4.617 4.617v29.676c0 .259.021.514.063.764z" fill="#1c2d6b"/></g></g></g><g><g><path d="m93.532 175.561v-7.681c0-3.101 2.514-5.615 5.615-5.615h-59.426c-5.223 0-9.456 4.234-9.456 9.456 0 5.222 4.233 9.456 9.456 9.456h59.426c-3.101 0-5.615-2.514-5.615-5.616z" fill="#ede49d"/></g><g><path d="m216.279 162.265h-59.426c3.101 0 5.615 2.514 5.615 5.615v7.681c0 3.101-2.514 5.615-5.615 5.615h59.426c5.223 0 9.456-4.233 9.456-9.456 0-5.221-4.234-9.455-9.456-9.455z" fill="#d3ba2a"/></g><g><path d="m162.468 175.561v-7.681c0-3.101-2.514-5.615-5.615-5.615h-57.706c-3.101 0-5.615 2.514-5.615 5.615v7.681c0 3.101 2.514 5.615 5.615 5.615h57.706c3.101.001 5.615-2.513 5.615-5.615z" fill="#eee045"/></g></g><g><path d="m216.279 184.177h-176.558c-6.868 0-12.456-5.587-12.456-12.456s5.588-12.456 12.456-12.456h176.558c6.868 0 12.456 5.588 12.456 12.456s-5.588 12.456-12.456 12.456zm-176.558-18.912c-3.56 0-6.456 2.896-6.456 6.456s2.896 6.456 6.456 6.456h176.558c3.56 0 6.456-2.896 6.456-6.456s-2.896-6.456-6.456-6.456z" fill="#1c2d6b"/></g><g><path d="m195.012 239h-134.024c-1.339 0-2.516-.887-2.884-2.175l-15.687-54.823c-.259-.905-.078-1.879.489-2.631s1.454-1.194 2.396-1.194h165.397c.941 0 1.829.442 2.396 1.194s.748 1.726.489 2.631l-15.687 54.823c-.369 1.288-1.546 2.175-2.885 2.175zm-131.762-6h129.5l13.97-48.823h-157.44z" fill="#1c2d6b"/></g><g><g><g><path d="m198.92 236h-6.58l-24.9-42.39c-2.98-.62-5.7-2.44-7.37-5.25-3.1-5.21-1.4-12.19 3.77-15.37.07-.04.14-.08.21-.12-.95.8.76 5.78 3.8 11 1.64 2.83 3.36 5.22 4.78 6.75z" fill="#e8383b"/></g><g><path d="m209.77 236h-7.31l-27.18-46.91c-.63-2.02-1.87-4.76-3.54-7.65-3.11-5.39-6.52-9.24-7.62-8.61 5.4-3.11 12.29-1.27 15.4 4.12 1.67 2.89 1.9 6.21.94 9.15z" fill="#ef7f72"/></g><g><path d="m164.063 172.861c-.004.003-.006.009-.009.012.023-.014.047-.025.071-.039-.02.011-.044.013-.062.027z" fill="#e95947"/></g><g><path d="m202.46 236h-3.54l-26.29-45.38c-1.42-1.53-3.14-3.92-4.78-6.75-3.04-5.22-4.75-10.2-3.8-11 .03-.01.05-.02.07-.04 1.1-.63 4.51 3.22 7.62 8.61 1.67 2.89 2.91 5.63 3.54 7.65z" fill="#e95947"/></g></g><g><g><path d="m95.93 188.36c-1.67 2.81-4.39 4.63-7.37 5.25l-24.9 42.39h-6.58l26.29-45.38c1.42-1.53 3.14-3.92 4.78-6.75 3.04-5.22 4.75-10.2 3.8-11 .07.04.14.08.21.12 5.17 3.18 6.87 10.16 3.77 15.37z" fill="#e8383b"/></g><g><path d="m91.88 172.83c-1.1-.63-4.51 3.22-7.62 8.61-1.67 2.89-2.91 5.63-3.54 7.65l-27.18 46.91h-7.31l29.31-49.9c-.96-2.94-.73-6.26.94-9.15 3.11-5.39 10-7.23 15.4-4.12z" fill="#ef7f72"/></g><g><path d="m91.937 172.861c.004.003.006.009.009.012-.023-.014-.047-.025-.071-.039.02.011.044.013.062.027z" fill="#e95947"/></g><g><path d="m88.15 183.87c-1.64 2.83-3.36 5.22-4.78 6.75l-26.29 45.38h-3.54l27.18-46.91c.63-2.02 1.87-4.76 3.54-7.65 3.11-5.39 6.52-9.24 7.62-8.61.02.02.04.03.07.04.95.8-.76 5.78-3.8 11z" fill="#e95947"/></g></g><g><path d="m209.771 239h-17.437c-1.064 0-2.048-.563-2.587-1.481l-24.268-41.322c-3.332-1.048-6.193-3.29-7.986-6.298-3.972-6.667-1.831-15.398 4.772-19.463 3.317-2.042 7.22-2.64 10.99-1.688 3.772.954 6.92 3.334 8.866 6.703 1.784 3.089 2.331 6.741 1.565 10.21l28.671 48.819c.545.927.551 2.076.017 3.009-.534.935-1.528 1.511-2.603 1.511zm-15.72-6h10.479l-26.654-45.386c-.436-.741-.532-1.634-.264-2.452.733-2.241.483-4.687-.686-6.711-1.127-1.953-2.953-3.333-5.14-3.886-2.185-.552-4.449-.205-6.374.98-3.762 2.316-5.027 7.482-2.764 11.283 1.191 1.999 3.113 3.366 5.412 3.85.826.174 1.541.688 1.969 1.417z" fill="#1c2d6b"/></g><g><path d="m63.667 239h-17.438c-1.076 0-2.069-.576-2.604-1.51s-.528-2.082.017-3.009l28.671-48.819c-.766-3.469-.218-7.121 1.565-10.21 1.945-3.369 5.094-5.75 8.866-6.703 3.77-.953 7.674-.354 10.99 1.688 6.603 4.065 8.744 12.796 4.772 19.462-1.792 3.008-4.654 5.25-7.986 6.298l-24.268 41.322c-.537.918-1.522 1.481-2.585 1.481zm-12.196-6h10.479l24.023-40.906c.428-.729 1.143-1.243 1.969-1.417 2.299-.484 4.221-1.851 5.412-3.85 2.264-3.8.998-8.966-2.764-11.282-1.924-1.185-4.189-1.532-6.374-.98-2.187.553-4.013 1.933-5.14 3.886-1.169 2.024-1.419 4.47-.686 6.711.268.817.171 1.71-.264 2.452z" fill="#1c2d6b"/></g></g></g></g></g></svg>