{
	"asset":{
		"version":"2.0",
		"generator":"Created using the official Cinema 4D glTF Exporter 1.000x284978"
	},
	"images":[{
		"uri":"data:image/jpeg;base64,"
	}],
	"scenes":[{
		"nodes":[0]
	}],
	"nodes":[{
		"name":"Default.1",
		"children":[1,
		2]
	},
	{
		"name":"Default.1",
		"skin":0,
		"mesh":0
	},
	{
		"name":"Junta.2",
		"translation":[-95.15611267089844,
		35.207923889160159,
		41.18840026855469],
		"scale":[1.0,
		1.0,
		1.0],
		"rotation":[0.17044946551322938,
		-0.6862557530403137,
		0.17044946551322938,
		0.6862557530403137],
		"children":[3]
	},
	{
		"name":"a",
		"translation":[-2.470633959122579e-15,
		-2.0356950207794494e-31,
		-85.64488983154297],
		"scale":[1.0,
		1.0,
		1.0],
		"rotation":[0.08803775906562805,
		-6.559324194910232e-10,
		7.4216512935265659e-9,
		0.996117115020752],
		"children":[4,
		5,
		6]
	},
	{
		"name":"Junta",
		"translation":[5.461989402770996,
		-21.323793411254884,
		-2.2355010509490969],
		"scale":[1.0,
		1.0,
		1.0],
		"rotation":[6.611185376925732e-9,
		0.9784681797027588,
		0.20639783143997193,
		1.6810055569749239e-9],
		"children":[7]
	},
	{
		"name":"Junta",
		"translation":[-6.651623725891113,
		-21.323793411254884,
		-2.2355010509490969],
		"scale":[1.0,
		1.0,
		1.0],
		"rotation":[6.611185376925732e-9,
		0.9784681797027588,
		0.20639783143997193,
		1.6810055569749239e-9],
		"children":[8]
	},
	{
		"name":"Junta.4",
		"translation":[1.631377912524596e-16,
		7.105427357601002e-14,
		-72.32208251953125],
		"scale":[1.0,
		1.0,
		1.0],
		"rotation":[-0.038522910326719287,
		-0.130051389336586,
		0.34706199169158938,
		-0.927981972694397],
		"children":[9]
	},
	{
		"name":"Junta.1",
		"translation":[-4.9605302810668949,
		1.2434497875801754e-14,
		-40.80200958251953],
		"scale":[1.0,
		1.0,
		1.0],
		"rotation":[0.5199107527732849,
		0.0,
		0.0,
		-0.8542205691337586],
		"children":[10]
	},
	{
		"name":"Junta.1",
		"translation":[4.119718074798584,
		1.2434497875801754e-14,
		-40.80200958251953],
		"scale":[1.0,
		1.0,
		1.0],
		"rotation":[0.8051973581314087,
		-1.299291300189708e-17,
		1.299291300189708e-17,
		-0.59300696849823],
		"children":[11]
	},
	{
		"name":"Junta.5",
		"translation":[-6.333604159799305e-15,
		1.4210854715202005e-14,
		-47.128883361816409],
		"scale":[1.0,
		1.0,
		1.0],
		"rotation":[0.0,
		-1.1323591719104637e-16,
		0.0,
		-1.0]
	},
	{
		"name":"Junta.2",
		"translation":[-0.8462585210800171,
		-1.2434497875801754e-14,
		-59.67148971557617],
		"scale":[1.0,
		1.0,
		1.0],
		"rotation":[4.440892098500626e-16,
		-1.7329344497479775e-17,
		-7.695774905105323e-33,
		-1.0]
	},
	{
		"name":"Junta.2",
		"translation":[0.4320167005062103,
		-1.2434497875801754e-14,
		-59.67148971557617],
		"scale":[1.0,
		1.0,
		1.0],
		"rotation":[4.440892098500626e-16,
		-1.7329344497479775e-17,
		-7.695774905105323e-33,
		-1.0]
	}],
	"materials":[{
		"pbrMetallicRoughness":{
			"baseColorTexture":{
				"index":0
			},
			"baseColorFactor":[1.0,
			1.0,
			1.0,
			1.0],
			"metallicFactor":1.0,
			"roughnessFactor":1.0
		},
		"normalTexture":{
			"index":1,
			"scale":0.48
		},
		"emissiveFactor":[0.0,
		0.0,
		0.0],
		"alphaMode":"OPAQUE",
		"doubleSided":true,
		"name":"Mat"
	}],
	"meshes":[{
		"name":"Default.1",
		"primitives":[{
			"attributes":{
				"POSITION":1,
				"NORMAL":2,
				"TEXCOORD_0":3,
				"JOINTS_0":4,
				"WEIGHTS_0":5
			},
			"indices":0,
			"material":0
		}]
	}],
	"skins":[{
		"inverseBindMatrices":18,
		"joints":[2,
		3,
		4,
		7,
		10,
		5,
		8,
		11,
		6,
		9]
	}],
	"accessors":[{
		"bufferView":0,
		"type":"SCALAR",
		"componentType":5123,
		"count":8190,
		"byteOffset":0,
		"min":[0],
		"max":[2087]
	},
	{
		"bufferView":1,
		"type":"VEC3",
		"componentType":5126,
		"count":2088,
		"byteOffset":0,
		"min":[-98.17945861816406,
		-39.35940170288086,
		7.821752548217773],
		"max":[92.34540557861328,
		166.10552978515626,
		63.68917465209961]
	},
	{
		"bufferView":1,
		"type":"VEC3",
		"componentType":5126,
		"count":2088,
		"byteOffset":12,
		"min":[-0.9997429251670837,
		-0.9999940395355225,
		-0.9999980926513672],
		"max":[0.9988196492195129,
		0.9999810457229614,
		0.9999983310699463]
	},
	{
		"bufferView":1,
		"type":"VEC2",
		"componentType":5126,
		"count":2088,
		"byteOffset":24,
		"min":[0.0096859997138381,
		0.03513399511575699],
		"max":[0.982026994228363,
		0.9987030029296875]
	},
	{
		"bufferView":2,
		"type":"VEC4",
		"componentType":5123,
		"count":2088,
		"byteOffset":0,
		"min":[0,
		0,
		0,
		0],
		"max":[8,
		8,
		6,
		5]
	},
	{
		"bufferView":3,
		"type":"VEC4",
		"componentType":5126,
		"count":2088,
		"byteOffset":0,
		"min":[0.5036850571632385,
		0.0,
		0.0,
		0.0],
		"max":[1.0,
		0.4963149428367615,
		0.0,
		0.0]
	},
	{
		"bufferView":4,
		"type":"SCALAR",
		"componentType":5126,
		"count":4,
		"byteOffset":0,
		"min":[0.0],
		"max":[2.6666667461395265]
	},
	{
		"bufferView":4,
		"type":"VEC3",
		"componentType":5126,
		"count":4,
		"byteOffset":16,
		"min":[1.631377912524596e-16,
		7.105427357601002e-14,
		-72.32208251953125],
		"max":[1.631377912524596e-16,
		7.105427357601002e-14,
		-72.32208251953125]
	},
	{
		"bufferView":5,
		"type":"SCALAR",
		"componentType":5126,
		"count":4,
		"byteOffset":0,
		"min":[0.0],
		"max":[2.6666667461395265]
	},
	{
		"bufferView":5,
		"type":"VEC4",
		"componentType":5126,
		"count":4,
		"byteOffset":16,
		"min":[-0.17314185202121736,
		-0.19653815031051637,
		0.057930245995521548,
		-0.9815236330032349],
		"max":[-0.036493632942438129,
		0.09765435755252838,
		0.3594125211238861,
		-0.926520586013794]
	},
	{
		"bufferView":6,
		"type":"SCALAR",
		"componentType":5126,
		"count":4,
		"byteOffset":0,
		"min":[0.0],
		"max":[2.6666667461395265]
	},
	{
		"bufferView":6,
		"type":"VEC3",
		"componentType":5126,
		"count":4,
		"byteOffset":16,
		"min":[1.0,
		1.0,
		1.0],
		"max":[1.0,
		1.0,
		1.0]
	},
	{
		"bufferView":7,
		"type":"SCALAR",
		"componentType":5126,
		"count":4,
		"byteOffset":0,
		"min":[0.0],
		"max":[2.6666667461395265]
	},
	{
		"bufferView":7,
		"type":"VEC3",
		"componentType":5126,
		"count":4,
		"byteOffset":16,
		"min":[4.119718074798584,
		1.2434497875801754e-14,
		-40.80200958251953],
		"max":[4.119718074798584,
		1.2434497875801754e-14,
		-40.80200958251953]
	},
	{
		"bufferView":8,
		"type":"SCALAR",
		"componentType":5126,
		"count":4,
		"byteOffset":0,
		"min":[0.0],
		"max":[2.6666667461395265]
	},
	{
		"bufferView":8,
		"type":"VEC4",
		"componentType":5126,
		"count":4,
		"byteOffset":16,
		"min":[0.5199107527732849,
		-2.499206602694471e-24,
		-3.400370338028425e-24,
		-0.8542205691337586],
		"max":[0.80577152967453,
		0.0,
		0.0,
		-0.592226505279541]
	},
	{
		"bufferView":9,
		"type":"SCALAR",
		"componentType":5126,
		"count":4,
		"byteOffset":0,
		"min":[0.0],
		"max":[2.6666667461395265]
	},
	{
		"bufferView":9,
		"type":"VEC3",
		"componentType":5126,
		"count":4,
		"byteOffset":16,
		"min":[1.0,
		1.0,
		1.0],
		"max":[1.0,
		1.0,
		1.0]
	},
	{
		"bufferView":10,
		"type":"MAT4",
		"componentType":5126,
		"count":10,
		"byteOffset":0,
		"min":[-9.173811044149716e-9,
		-0.8814799785614014,
		-0.9818927645683289,
		0.0,
		-0.33463722467422488,
		-0.9818927645683289,
		-0.7204694151878357,
		0.0,
		-1.0,
		-1.4901161193847657e-8,
		-3.788148127616169e-16,
		0.0,
		-41.18840026855469,
		-82.79969024658203,
		-67.62446594238281,
		1.0],
		"max":[0.6016663908958435,
		-0.18943744897842408,
		0.47222140431404116,
		0.0,
		1.17424781009845e-8,
		0.8837879300117493,
		0.8814799785614014,
		0.0,
		1.0,
		0.6541544795036316,
		0.21463103592395783,
		0.0,
		52.457176208496097,
		18.93742561340332,
		149.3511962890625,
		1.0]
	}],
	"bufferViews":[{
		"buffer":0,
		"byteOffset":0,
		"byteLength":16380,
		"target":34963
	},
	{
		"buffer":0,
		"byteOffset":16380,
		"byteLength":66816,
		"target":34962,
		"byteStride":32
	},
	{
		"buffer":0,
		"byteOffset":83196,
		"byteLength":16704,
		"target":34962
	},
	{
		"buffer":0,
		"byteOffset":99900,
		"byteLength":33408,
		"target":34962
	},
	{
		"buffer":1,
		"byteOffset":0,
		"byteLength":64
	},
	{
		"buffer":1,
		"byteOffset":64,
		"byteLength":80
	},
	{
		"buffer":1,
		"byteOffset":144,
		"byteLength":64
	},
	{
		"buffer":2,
		"byteOffset":0,
		"byteLength":64
	},
	{
		"buffer":2,
		"byteOffset":64,
		"byteLength":80
	},
	{
		"buffer":2,
		"byteOffset":144,
		"byteLength":64
	},
	{
		"buffer":3,
		"byteOffset":0,
		"byteLength":640
	}],
	"buffers":[{
		"uri":"data:application/octet-stream;base64,",
		"byteLength":133308
	},
	{
		"uri":"data:application/octet-stream;base64,",
		"byteLength":208
	},
	{
		"uri":"data:application/octet-stream;base64,",
		"byteLength":208
	},
	{
		"uri":"data:application/octet-stream;base64,",
		"byteLength":640
	}],
	"samplers":[{
		"magFilter":9729,
		"minFilter":9729,
		"wrapS":10497,
		"wrapT":10497
	},
	{
		"magFilter":9729,
		"minFilter":9729,
		"wrapS":10497,
		"wrapT":10497
	}],
	"textures":[{
		"sampler":0,
		"source":0
	},
	{
		"sampler":1,
		"source":0
	}],
	"animations":[{
		"samplers":[{
			"input":6,
			"interpolation":"LINEAR",
			"output":7
		},
		{
			"input":8,
			"interpolation":"LINEAR",
			"output":9
		},
		{
			"input":10,
			"interpolation":"LINEAR",
			"output":11
		},
		{
			"input":12,
			"interpolation":"LINEAR",
			"output":13
		},
		{
			"input":14,
			"interpolation":"LINEAR",
			"output":15
		},
		{
			"input":16,
			"interpolation":"LINEAR",
			"output":17
		}],
		"channels":[{
			"sampler":0,
			"target":{
				"node":6,
				"path":"translation"
			}
		},
		{
			"sampler":1,
			"target":{
				"node":6,
				"path":"rotation"
			}
		},
		{
			"sampler":2,
			"target":{
				"node":6,
				"path":"scale"
			}
		},
		{
			"sampler":3,
			"target":{
				"node":8,
				"path":"translation"
			}
		},
		{
			"sampler":4,
			"target":{
				"node":8,
				"path":"rotation"
			}
		},
		{
			"sampler":5,
			"target":{
				"node":8,
				"path":"scale"
			}
		}]
	}]
}